<?xml version="1.0" encoding="utf-8"?>
<!-- Generator: Adobe Illustrator 28.2.0, SVG Export Plug-In . SVG Version: 6.00 Build 0)  -->
<svg version="1.1" id="Layer_1" xmlns="http://www.w3.org/2000/svg" xmlns:xlink="http://www.w3.org/1999/xlink" x="0px" y="0px"
	 viewBox="0 0 42.7 42.5" style="enable-background:new 0 0 42.7 42.5;" xml:space="preserve">
<style type="text/css">
	.st0{fill:#193631;}
</style>
<path class="st0" d="M41.7,39.8l-1.5,1.5c-0.5,0.5-1.4,0.5-1.9,0L1.5,4.5C1,4,1,3.1,1.5,2.6L3,1.1c0.5-0.5,1.4-0.5,1.9,0l36.8,36.8
	C42.3,38.4,42.3,39.2,41.7,39.8z"/>
<path class="st0" d="M3,41.3l-1.5-1.5c-0.5-0.5-0.5-1.4,0-1.9L38.3,1.1c0.5-0.5,1.4-0.5,1.9,0l1.5,1.5c0.5,0.5,0.5,1.4,0,1.9L5,41.3
	C4.4,41.9,3.6,41.9,3,41.3z"/>
</svg>
