<?xml version="1.0" encoding="utf-8"?>
<!-- Generator: Adobe Illustrator 27.8.1, SVG Export Plug-In . SVG Version: 6.00 Build 0)  -->
<svg version="1.1" id="Layer_1" xmlns="http://www.w3.org/2000/svg" xmlns:xlink="http://www.w3.org/1999/xlink" x="0px" y="0px"
	 viewBox="0 0 55 30" style="enable-background:new 0 0 55 30;" xml:space="preserve">
<style type="text/css">
	.st0{fill:#DFC797;}
</style>
<path class="st0" d="M54.1,5H0.9C0.4,5,0,4.6,0,4.1l0-3.1C0,0.4,0.4,0,0.9,0l53.1,0C54.6,0,55,0.4,55,0.9v3.1C55,4.6,54.6,5,54.1,5z
	"/>
<path class="st0" d="M52.5,17.5h-50C1.1,17.5,0,16.4,0,15v0c0-1.4,1.1-2.5,2.5-2.5h50c1.4,0,2.5,1.1,2.5,2.5v0
	C55,16.4,53.9,17.5,52.5,17.5z"/>
<path class="st0" d="M52.5,30h-50C1.1,30,0,28.9,0,27.5v0C0,26.1,1.1,25,2.5,25h50c1.4,0,2.5,1.1,2.5,2.5v0C55,28.9,53.9,30,52.5,30
	z"/>
</svg>
